<svg width="515" height="19" viewBox="0 0 515 19" fill="none" xmlns="http://www.w3.org/2000/svg">
<path d="M0 10.0001H232V9.00007H0V10.0001Z" fill="#D9D9D9"/>
<path d="M283 10.0001H515V9.00007H283V10.0001Z" fill="#D9D9D9"/>
<path d="M257.557 9.27279C257.557 11.1762 257.196 12.7955 256.474 14.1307C255.759 15.466 254.781 16.4859 253.543 17.1904C252.31 17.8893 250.923 18.2387 249.384 18.2387C247.832 18.2387 246.44 17.8864 245.207 17.1819C243.974 16.4773 243 15.4575 242.284 14.1222C241.568 12.787 241.21 11.1705 241.21 9.27279C241.21 7.36939 241.568 5.75007 242.284 4.41484C243 3.07961 243.974 2.06257 245.207 1.3637C246.44 0.659158 247.832 0.306885 249.384 0.306885C250.923 0.306885 252.31 0.659158 253.543 1.3637C254.781 2.06257 255.759 3.07961 256.474 4.41484C257.196 5.75007 257.557 7.36939 257.557 9.27279ZM253.815 9.27279C253.815 8.03984 253.631 7.00007 253.261 6.15348C252.898 5.30689 252.384 4.66484 251.719 4.22734C251.054 3.78984 250.276 3.57109 249.384 3.57109C248.491 3.57109 247.713 3.78984 247.048 4.22734C246.384 4.66484 245.866 5.30689 245.497 6.15348C245.134 7.00007 244.952 8.03984 244.952 9.27279C244.952 10.5057 245.134 11.5455 245.497 12.3921C245.866 13.2387 246.384 13.8807 247.048 14.3182C247.713 14.7557 248.491 14.9745 249.384 14.9745C250.276 14.9745 251.054 14.7557 251.719 14.3182C252.384 13.8807 252.898 13.2387 253.261 12.3921C253.631 11.5455 253.815 10.5057 253.815 9.27279Z" fill="white"/>
<path d="M260.29 18.0001V0.545521H267.177C268.495 0.545521 269.62 0.781317 270.552 1.25291C271.489 1.71882 272.202 2.38075 272.691 3.2387C273.185 4.09098 273.433 5.09382 273.433 6.24723C273.433 7.40632 273.183 8.40348 272.683 9.2387C272.183 10.0682 271.458 10.7046 270.509 11.1478C269.566 11.591 268.424 11.8126 267.083 11.8126H262.472V8.84666H266.487C267.191 8.84666 267.776 8.75007 268.242 8.55689C268.708 8.3637 269.055 8.07393 269.282 7.68757C269.515 7.3012 269.631 6.82109 269.631 6.24723C269.631 5.66768 269.515 5.17904 269.282 4.78132C269.055 4.38359 268.705 4.08245 268.234 3.87791C267.768 3.66768 267.18 3.56257 266.469 3.56257H263.981V18.0001H260.29ZM269.717 10.0569L274.055 18.0001H269.981L265.737 10.0569H269.717Z" fill="white"/>
</svg>
